# xmcd
#
# Track frame offsets:
#	150
#	28183
#	50376
#	70615
#	85241
#	103792
#	124389
#	141034
#	163565
#	192427
#	229554
#	257247
#	289581
#	311382
#	331984
#
# Disc length: 4708 seconds
#
# Revision: 1
# Processed by: cddbd v1.5.2PL0 Copyright (c) Steve Scherf et al.
# Submitted via: audiograbber 1.83.01
#
DISCID=d112620f
DTITLE=Various Artist - Soul Togetherness 2009
DYEAR=1900
DGENRE=Soul
TTITLE0=Root Soul feat. leon King - My Dream Come True
TTITLE1=Lee, Tyrone - Time Of Your Life
TTITLE2=Auldist, Kylie - In A Week, In A Day
TTITLE3=Tavares - Only One I Need To Love
TTITLE4=Seven feat. Omar - Wish Of A Fool
TTITLE5=Khan, Chaka - Lover´s Touch
TTITLE6=Jovonnie - Was She Woth It
TTITLE7=45 aka Swing-O feat. Jimmy Abney - Nothing Feeld Better Than You
TTITLE8=JD73 feat. Ella May - Thing Twice (RExt. Rhodes Mix)
TTITLE9=Montana, Jonny feat. Claude Bain - Seasons
TTITLE10=Los Charly´s Orchstra - Some Of The Times (Joey Negro Dub)
TTITLE11=Paprika Soul - Music Of Life
TTITLE12=Impresions, The - This Time
TTITLE13=haynes, Victor - 2nd Opinion
TTITLE14=Kloud 9 - Everything Is Good 2Nite (feat. Incognito)
EXTD=
EXTT0=
EXTT1=
EXTT2=
EXTT3=
EXTT4=
EXTT5=
EXTT6=
EXTT7=
EXTT8=
EXTT9=
EXTT10=
EXTT11=
EXTT12=
EXTT13=
EXTT14=
PLAYORDER=
